<?xml version="1.0" encoding="UTF-8" standalone="no" ?>
<!DOCTYPE svg PUBLIC "-//W3C//DTD SVG 1.1//EN" "http://www.w3.org/Graphics/SVG/1.1/DTD/svg11.dtd">
<svg xmlns="http://www.w3.org/2000/svg" xmlns:xlink="http://www.w3.org/1999/xlink" version="1.1" width="1280" height="1024" viewBox="0 0 1280 1024" xml:space="preserve">
<desc>Created with Fabric.js 5.3.0</desc>
<defs>
</defs>
<g transform="matrix(1 0 0 1 640 512)" id="background-logo"  >
<rect style="stroke: none; stroke-width: 0; stroke-dasharray: none; stroke-linecap: butt; stroke-dashoffset: 0; stroke-linejoin: miter; stroke-miterlimit: 4; fill: rgb(255,255,255); fill-opacity: 0; fill-rule: nonzero; opacity: 1;"  paint-order="stroke"  x="-640" y="-512" rx="0" ry="0" width="1280" height="1024" />
</g>
<g transform="matrix(1.9211538461538462 0 0 1.9211538461538462 639.263187396743 705.4756207668946)" id="text-logo"  >
<g style=""  paint-order="stroke"   >
		<g transform="matrix(1 0 0 1 0 0)" id="text-logo-path-0"  >
<path style="stroke: rgb(255,255,255); stroke-width: 0; stroke-dasharray: none; stroke-linecap: butt; stroke-dashoffset: 0; stroke-linejoin: miter; stroke-miterlimit: 4; fill: rgb(157,70,62); fill-rule: nonzero; opacity: 1;"  paint-order="stroke"  transform=" translate(-269.52, 16.705000000000002)" d="M 37.63 -2.59 L 37.63 -30.14 C 37.63 -33.65 33.07 -35.14 31.01 -32.16 L 20.88 -17.04 C 20.3 -16.22 19.44 -16.22 18.86 -17.04 L 8.74 -32.16 C 6.67 -35.09 2.11 -33.65 2.11 -30.14 L 2.11 -2.59 C 2.11 -1.01 3.41 0.29 4.99 0.29 C 6.58 0.29 7.87 -1.01 7.87 -2.59 L 7.87 -21.26 C 7.87 -22.22 8.3 -22.37 8.88 -21.55 L 16.99 -9.5 C 18.34 -7.39 21.46 -7.44 22.75 -9.5 L 30.86 -21.55 C 31.44 -22.37 31.87 -22.22 31.87 -21.26 L 31.87 -2.59 C 31.87 -1.01 33.17 0.29 34.75 0.29 C 36.34 0.29 37.63 -1.01 37.63 -2.59 Z M 21.89 -12.58 L 21.79 -12.72 C 21.84 -12.67 21.89 -12.58 21.89 -12.58 Z M 67.34 -5.76 L 54.91 -5.76 C 53.95 -5.76 53.14 -6.58 53.14 -7.54 L 53.14 -12.14 C 53.14 -13.1 53.95 -13.92 54.91 -13.92 L 63.98 -13.92 C 65.57 -13.92 66.86 -15.22 66.86 -16.8 C 66.86 -18.38 65.57 -19.68 63.98 -19.68 L 54.91 -19.68 C 53.95 -19.68 53.14 -20.5 53.14 -21.46 L 53.14 -26.06 C 53.14 -27.02 53.95 -27.84 54.91 -27.84 L 67.34 -27.84 C 68.93 -27.84 70.22 -29.14 70.22 -30.72 C 70.22 -32.3 68.93 -33.6 67.34 -33.6 L 50.98 -33.6 C 49.01 -33.6 47.38 -31.97 47.38 -30 L 47.38 -3.6 C 47.38 -1.63 49.01 0 50.98 0 L 67.34 0 C 68.93 0 70.22 -1.3 70.22 -2.88 C 70.22 -4.46 68.93 -5.76 67.34 -5.76 Z M 85.73 -2.59 L 85.73 -21.84 C 85.73 -22.8 86.21 -22.94 86.74 -22.18 L 101.62 -1.34 C 103.68 1.54 108.29 0.1 108.29 -3.5 L 108.29 -31.01 C 108.29 -32.59 106.99 -33.89 105.41 -33.89 C 103.82 -33.89 102.53 -32.59 102.53 -31.01 L 102.53 -11.81 C 102.53 -10.85 102.05 -10.7 101.52 -11.47 L 86.64 -32.3 C 84.58 -35.18 79.97 -33.74 79.97 -30.14 L 79.97 -2.59 C 79.97 -1.01 81.26 0.29 82.85 0.29 C 84.43 0.29 85.73 -1.01 85.73 -2.59 Z M 118.85 -4.7 C 121.73 -1.68 125.52 0.24 129.84 0.24 C 136.27 0.24 141.12 -4.32 141.12 -9.02 C 141.12 -15.41 135.31 -18.34 130.66 -20.11 C 126.62 -21.65 124.32 -22.85 124.32 -24.58 C 124.32 -26.06 126.19 -28.08 129.7 -28.08 C 132.19 -28.08 133.87 -27.22 135.12 -25.78 C 135.7 -25.15 136.42 -24.82 137.28 -24.82 C 138.86 -24.82 140.16 -26.11 140.16 -27.7 C 140.16 -28.42 139.87 -29.14 139.44 -29.62 C 137.33 -31.97 134.16 -33.84 129.7 -33.84 C 122.83 -33.84 118.56 -29.18 118.56 -24.58 C 118.56 -19.3 123.17 -16.8 128.64 -14.74 C 132.53 -13.25 135.36 -11.66 135.36 -9.02 C 135.36 -7.63 133.2 -5.52 129.84 -5.52 C 127.25 -5.52 124.94 -6.62 122.98 -8.69 C 122.45 -9.26 121.73 -9.55 120.91 -9.55 C 119.38 -9.55 118.03 -8.26 118.03 -6.67 C 118.03 -5.95 118.37 -5.18 118.85 -4.7 Z M 166.27 -2.59 L 166.27 -26.06 C 166.27 -27.02 167.09 -27.84 168.05 -27.84 L 173.04 -27.84 C 174.62 -27.84 175.92 -29.14 175.92 -30.72 C 175.92 -32.3 174.62 -33.6 173.04 -33.6 L 153.74 -33.6 C 152.16 -33.6 150.86 -32.3 150.86 -30.72 C 150.86 -29.14 152.16 -27.84 153.74 -27.84 L 158.74 -27.84 C 159.7 -27.84 160.51 -27.02 160.51 -26.06 L 160.51 -2.59 C 160.51 -1.01 161.81 0.29 163.39 0.29 C 164.98 0.29 166.27 -1.01 166.27 -2.59 Z M 191.42 -2.59 L 191.42 -7.15 C 191.42 -8.11 192.24 -8.93 193.2 -8.93 L 195.84 -8.93 C 196.8 -8.93 198.1 -8.3 198.72 -7.54 L 203.81 -0.86 C 204.34 -0.19 205.15 0.24 206.06 0.24 C 207.65 0.24 208.94 -1.06 208.94 -2.64 C 208.94 -3.26 208.75 -3.94 208.37 -4.42 L 204.91 -8.93 C 204.34 -9.65 204.53 -10.75 205.34 -11.28 C 208.46 -13.54 210.53 -17.18 210.53 -21.26 C 210.53 -27.94 204.91 -33.55 198.24 -33.55 L 189.26 -33.55 C 187.3 -33.55 185.66 -31.97 185.66 -30 L 185.66 -2.59 C 185.66 -1.01 186.96 0.29 188.54 0.29 C 190.13 0.29 191.42 -1.01 191.42 -2.59 Z M 191.42 -16.46 L 191.42 -26.02 C 191.42 -26.98 192.24 -27.79 193.2 -27.79 L 198.24 -27.79 C 202.13 -27.79 204.77 -25.15 204.77 -21.26 C 204.77 -17.33 202.13 -14.69 198.24 -14.69 L 193.2 -14.69 C 192.24 -14.69 191.42 -15.5 191.42 -16.46 Z M 241.87 -31.01 L 241.87 -13.92 C 241.87 -9.31 238.08 -5.52 233.47 -5.52 C 228.86 -5.52 225.07 -9.31 225.07 -13.92 L 225.07 -31.01 C 225.07 -32.59 223.78 -33.89 222.19 -33.89 C 220.61 -33.89 219.31 -32.59 219.31 -31.01 L 219.31 -13.92 C 219.31 -6.14 225.7 0.24 233.47 0.24 C 241.25 0.24 247.63 -6.14 247.63 -13.92 L 247.63 -31.01 C 247.63 -32.59 246.34 -33.89 244.75 -33.89 C 243.17 -33.89 241.87 -32.59 241.87 -31.01 Z M 259.3 -13.92 L 271.87 -13.92 C 273.46 -13.92 274.75 -15.22 274.75 -16.8 C 274.75 -18.38 273.46 -19.68 271.87 -19.68 L 259.3 -19.68 C 257.71 -19.68 256.42 -18.38 256.42 -16.8 C 256.42 -15.22 257.71 -13.92 259.3 -13.92 Z M 315.36 -3.55 L 303.65 -31.34 C 302.3 -34.7 297.79 -34.66 296.45 -31.34 L 284.74 -3.55 C 284.59 -3.22 284.5 -2.83 284.5 -2.4 C 284.5 -0.82 285.79 0.48 287.38 0.48 C 288.53 0.48 289.58 -0.24 290.02 -1.2 L 291.46 -4.61 C 291.79 -5.47 292.94 -6.24 293.9 -6.24 L 306.19 -6.24 C 307.15 -6.24 308.3 -5.47 308.64 -4.61 L 310.08 -1.2 C 310.56 -0.19 311.57 0.48 312.72 0.48 C 314.26 0.48 315.6 -0.82 315.6 -2.4 C 315.6 -2.78 315.5 -3.22 315.36 -3.55 Z M 295.25 -13.63 L 299.38 -23.38 C 299.71 -24.24 300.38 -24.24 300.72 -23.38 L 304.85 -13.63 C 305.18 -12.77 304.7 -12 303.74 -12 L 296.35 -12 C 295.39 -12 294.91 -12.77 295.25 -13.63 Z M 331.1 -2.59 L 331.1 -7.15 C 331.1 -8.11 331.92 -8.93 332.88 -8.93 L 337.92 -8.93 C 344.59 -8.93 350.26 -14.59 350.26 -21.26 C 350.26 -27.98 344.59 -33.6 337.92 -33.6 L 328.94 -33.6 C 326.98 -33.6 325.34 -31.97 325.34 -30.05 L 325.34 -2.59 C 325.34 -1.01 326.64 0.29 328.22 0.29 C 329.81 0.29 331.1 -1.01 331.1 -2.59 Z M 331.1 -16.46 L 331.1 -26.06 C 331.1 -27.02 331.92 -27.84 332.88 -27.84 L 337.92 -27.84 C 341.81 -27.84 344.5 -25.2 344.5 -21.26 C 344.5 -17.38 341.81 -14.69 337.92 -14.69 L 332.88 -14.69 C 331.92 -14.69 331.1 -15.5 331.1 -16.46 Z M 365.76 -2.59 L 365.76 -7.15 C 365.76 -8.11 366.58 -8.93 367.54 -8.93 L 370.18 -8.93 C 371.14 -8.93 372.43 -8.3 373.06 -7.54 L 378.14 -0.86 C 378.67 -0.19 379.49 0.24 380.4 0.24 C 381.98 0.24 383.28 -1.06 383.28 -2.64 C 383.28 -3.26 383.09 -3.94 382.7 -4.42 L 379.25 -8.93 C 378.67 -9.65 378.86 -10.75 379.68 -11.28 C 382.8 -13.54 384.86 -17.18 384.86 -21.26 C 384.86 -27.94 379.25 -33.55 372.58 -33.55 L 363.6 -33.55 C 361.63 -33.55 360 -31.97 360 -30 L 360 -2.59 C 360 -1.01 361.3 0.29 362.88 0.29 C 364.46 0.29 365.76 -1.01 365.76 -2.59 Z M 365.76 -16.46 L 365.76 -26.02 C 365.76 -26.98 366.58 -27.79 367.54 -27.79 L 372.58 -27.79 C 376.46 -27.79 379.1 -25.15 379.1 -21.26 C 379.1 -17.33 376.46 -14.69 372.58 -14.69 L 367.54 -14.69 C 366.58 -14.69 365.76 -15.5 365.76 -16.46 Z M 414.58 -5.76 L 402.14 -5.76 C 401.18 -5.76 400.37 -6.58 400.37 -7.54 L 400.37 -12.14 C 400.37 -13.1 401.18 -13.92 402.14 -13.92 L 411.22 -13.92 C 412.8 -13.92 414.1 -15.22 414.1 -16.8 C 414.1 -18.38 412.8 -19.68 411.22 -19.68 L 402.14 -19.68 C 401.18 -19.68 400.37 -20.5 400.37 -21.46 L 400.37 -26.06 C 400.37 -27.02 401.18 -27.84 402.14 -27.84 L 414.58 -27.84 C 416.16 -27.84 417.46 -29.14 417.46 -30.72 C 417.46 -32.3 416.16 -33.6 414.58 -33.6 L 398.21 -33.6 C 396.24 -33.6 394.61 -31.97 394.61 -30 L 394.61 -3.6 C 394.61 -1.63 396.24 0 398.21 0 L 414.58 0 C 416.16 0 417.46 -1.3 417.46 -2.88 C 417.46 -4.46 416.16 -5.76 414.58 -5.76 Z M 432.96 -2.59 L 432.96 -21.84 C 432.96 -22.8 433.44 -22.94 433.97 -22.18 L 448.85 -1.34 C 450.91 1.54 455.52 0.1 455.52 -3.5 L 455.52 -31.01 C 455.52 -32.59 454.22 -33.89 452.64 -33.89 C 451.06 -33.89 449.76 -32.59 449.76 -31.01 L 449.76 -11.81 C 449.76 -10.85 449.28 -10.7 448.75 -11.47 L 433.87 -32.3 C 431.81 -35.18 427.2 -33.74 427.2 -30.14 L 427.2 -2.59 C 427.2 -1.01 428.5 0.29 430.08 0.29 C 431.66 0.29 432.96 -1.01 432.96 -2.59 Z M 476.26 -5.76 L 472.8 -5.76 C 471.84 -5.76 471.02 -6.58 471.02 -7.54 L 471.02 -26.06 C 471.02 -27.02 471.84 -27.84 472.8 -27.84 L 476.26 -27.84 C 482.69 -27.84 487.3 -23.23 487.3 -16.85 C 487.3 -10.37 482.69 -5.76 476.26 -5.76 Z M 468.82 0 L 476.26 0 C 485.47 0 493.06 -7.58 493.06 -16.85 C 493.06 -26.02 485.47 -33.6 476.26 -33.6 L 468.82 -33.6 C 466.9 -33.6 465.26 -32.02 465.26 -30.05 L 465.26 -3.55 C 465.26 -1.58 466.9 0 468.82 0 Z M 519.89 -5.52 C 513.65 -5.52 508.56 -10.61 508.56 -16.85 C 508.56 -22.99 513.65 -28.08 519.89 -28.08 C 526.08 -28.08 531.17 -22.99 531.17 -16.85 C 531.17 -10.61 526.08 -5.52 519.89 -5.52 Z M 519.89 0.24 C 529.25 0.24 536.93 -7.44 536.93 -16.85 C 536.93 -26.16 529.25 -33.84 519.89 -33.84 C 510.48 -33.84 502.8 -26.16 502.8 -16.85 C 502.8 -7.44 510.48 0.24 519.89 0.24 Z" stroke-linecap="round" />
</g>
</g>
</g>
<g transform="matrix(1.9211538461538462 0 0 1.9211538461538462 639.4216825890508 814.2117059312413)" id="tagline-c85d51c1-e6ac-4a14-b6d9-906ea3877ca8-logo"  >
<g style=""  paint-order="stroke"   >
		<g transform="matrix(1 0 0 1 0 0)" id="tagline-c85d51c1-e6ac-4a14-b6d9-906ea3877ca8-logo-path-0"  >
<path style="stroke: rgb(255,255,255); stroke-width: 0; stroke-dasharray: none; stroke-linecap: butt; stroke-dashoffset: 0; stroke-linejoin: miter; stroke-miterlimit: 4; fill: rgb(157,70,62); fill-rule: nonzero; opacity: 1;"  paint-order="stroke"  transform=" translate(-231.72, 13.635)" d="M 13.8 -3.6 L 6.03 -3.6 C 5.43 -3.6 4.92 -4.11 4.92 -4.71 L 4.92 -7.59 C 4.92 -8.19 5.43 -8.7 6.03 -8.7 L 11.7 -8.7 C 12.69 -8.7 13.5 -9.51 13.5 -10.5 C 13.5 -11.49 12.69 -12.3 11.7 -12.3 L 6.03 -12.3 C 5.43 -12.3 4.92 -12.81 4.92 -13.41 L 4.92 -16.29 C 4.92 -16.89 5.43 -17.4 6.03 -17.4 L 13.8 -17.4 C 14.79 -17.4 15.6 -18.21 15.6 -19.2 C 15.6 -20.19 14.79 -21 13.8 -21 L 3.57 -21 C 2.34 -21 1.32 -19.98 1.32 -18.75 L 1.32 -2.25 C 1.32 -1.02 2.34 0 3.57 0 L 13.8 0 C 14.79 0 15.6 -0.81 15.6 -1.8 C 15.6 -2.79 14.79 -3.6 13.8 -3.6 Z M 28.71 -3.6 L 26.55 -3.6 C 25.95 -3.6 25.44 -4.11 25.44 -4.71 L 25.44 -16.29 C 25.44 -16.89 25.95 -17.4 26.55 -17.4 L 28.71 -17.4 C 32.73 -17.4 35.61 -14.52 35.61 -10.53 C 35.61 -6.48 32.73 -3.6 28.71 -3.6 Z M 24.06 0 L 28.71 0 C 34.47 0 39.21 -4.74 39.21 -10.53 C 39.21 -16.26 34.47 -21 28.71 -21 L 24.06 -21 C 22.86 -21 21.84 -20.01 21.84 -18.78 L 21.84 -2.22 C 21.84 -0.99 22.86 0 24.06 0 Z M 58.95 -19.38 L 58.95 -8.7 C 58.95 -5.82 56.58 -3.45 53.7 -3.45 C 50.82 -3.45 48.45 -5.82 48.45 -8.7 L 48.45 -19.38 C 48.45 -20.37 47.64 -21.18 46.65 -21.18 C 45.66 -21.18 44.85 -20.37 44.85 -19.38 L 44.85 -8.7 C 44.85 -3.84 48.84 0.15 53.7 0.15 C 58.56 0.15 62.55 -3.84 62.55 -8.7 L 62.55 -19.38 C 62.55 -20.37 61.74 -21.18 60.75 -21.18 C 59.76 -21.18 58.95 -20.37 58.95 -19.38 Z M 82.74 -4.62 C 81.6 -3.87 80.28 -3.45 78.87 -3.45 C 74.97 -3.45 71.79 -6.63 71.79 -10.53 C 71.79 -14.37 74.97 -17.55 78.87 -17.55 C 80.28 -17.55 81.6 -17.13 82.74 -16.38 C 83.04 -16.17 83.37 -16.08 83.73 -16.08 C 84.69 -16.08 85.53 -16.89 85.53 -17.88 C 85.53 -18.48 85.23 -19.05 84.72 -19.38 C 83.07 -20.46 81 -21.15 78.87 -21.15 C 72.99 -21.15 68.19 -16.35 68.19 -10.53 C 68.19 -4.65 72.99 0.15 78.87 0.15 C 81.03 0.15 83.04 -0.51 84.72 -1.62 C 85.2 -1.95 85.53 -2.49 85.53 -3.12 C 85.53 -4.11 84.72 -4.92 83.73 -4.92 C 83.4 -4.92 83.01 -4.8 82.74 -4.62 Z M 110.46 -2.22 L 103.14 -19.59 C 102.3 -21.69 99.48 -21.66 98.64 -19.59 L 91.32 -2.22 C 91.23 -2.01 91.17 -1.77 91.17 -1.5 C 91.17 -0.51 91.98 0.3 92.97 0.3 C 93.69 0.3 94.35 -0.15 94.62 -0.75 L 95.52 -2.88 C 95.73 -3.42 96.45 -3.9 97.05 -3.9 L 104.73 -3.9 C 105.33 -3.9 106.05 -3.42 106.26 -2.88 L 107.16 -0.75 C 107.46 -0.12 108.09 0.3 108.81 0.3 C 109.77 0.3 110.61 -0.51 110.61 -1.5 C 110.61 -1.74 110.55 -2.01 110.46 -2.22 Z M 97.89 -8.52 L 100.47 -14.61 C 100.68 -15.15 101.1 -15.15 101.31 -14.61 L 103.89 -8.52 C 104.1 -7.98 103.8 -7.5 103.2 -7.5 L 98.58 -7.5 C 97.98 -7.5 97.68 -7.98 97.89 -8.52 Z M 129.3 -4.62 C 128.16 -3.87 126.84 -3.45 125.43 -3.45 C 121.53 -3.45 118.35 -6.63 118.35 -10.53 C 118.35 -14.37 121.53 -17.55 125.43 -17.55 C 126.84 -17.55 128.16 -17.13 129.3 -16.38 C 129.6 -16.17 129.93 -16.08 130.29 -16.08 C 131.25 -16.08 132.09 -16.89 132.09 -17.88 C 132.09 -18.48 131.79 -19.05 131.28 -19.38 C 129.63 -20.46 127.56 -21.15 125.43 -21.15 C 119.55 -21.15 114.75 -16.35 114.75 -10.53 C 114.75 -4.65 119.55 0.15 125.43 0.15 C 127.59 0.15 129.6 -0.51 131.28 -1.62 C 131.76 -1.95 132.09 -2.49 132.09 -3.12 C 132.09 -4.11 131.28 -4.92 130.29 -4.92 C 129.96 -4.92 129.57 -4.8 129.3 -4.62 Z M 141.93 -1.62 L 141.93 -19.38 C 141.93 -20.37 141.12 -21.18 140.13 -21.18 C 139.14 -21.18 138.33 -20.37 138.33 -19.38 L 138.33 -1.62 C 138.33 -0.63 139.14 0.18 140.13 0.18 C 141.12 0.18 141.93 -0.63 141.93 -1.62 Z M 158.85 -3.45 C 154.95 -3.45 151.77 -6.63 151.77 -10.53 C 151.77 -14.37 154.95 -17.55 158.85 -17.55 C 162.72 -17.55 165.9 -14.37 165.9 -10.53 C 165.9 -6.63 162.72 -3.45 158.85 -3.45 Z M 158.85 0.15 C 164.7 0.15 169.5 -4.65 169.5 -10.53 C 169.5 -16.35 164.7 -21.15 158.85 -21.15 C 152.97 -21.15 148.17 -16.35 148.17 -10.53 C 148.17 -4.65 152.97 0.15 158.85 0.15 Z M 158.34 -26.94 L 156.6 -24.9 C 156.33 -24.57 156.18 -24.18 156.18 -23.73 C 156.18 -22.77 156.99 -21.93 157.98 -21.93 C 158.49 -21.93 159 -22.17 159.33 -22.56 L 161.07 -24.6 C 161.34 -24.93 161.49 -25.32 161.49 -25.77 C 161.49 -26.73 160.68 -27.57 159.69 -27.57 C 159.18 -27.57 158.67 -27.33 158.34 -26.94 Z M 179.34 -1.62 L 179.34 -13.65 C 179.34 -14.25 179.64 -14.34 179.97 -13.86 L 189.27 -0.84 C 190.56 0.96 193.44 0.06 193.44 -2.19 L 193.44 -19.38 C 193.44 -20.37 192.63 -21.18 191.64 -21.18 C 190.65 -21.18 189.84 -20.37 189.84 -19.38 L 189.84 -7.38 C 189.84 -6.78 189.54 -6.69 189.21 -7.17 L 179.91 -20.19 C 178.62 -21.99 175.74 -21.09 175.74 -18.84 L 175.74 -1.62 C 175.74 -0.63 176.55 0.18 177.54 0.18 C 178.53 0.18 179.34 -0.63 179.34 -1.62 Z M 212.88 -1.62 L 212.88 -4.47 C 212.88 -5.07 213.39 -5.58 213.99 -5.58 L 217.14 -5.58 C 221.31 -5.58 224.85 -9.12 224.85 -13.29 C 224.85 -17.49 221.31 -21 217.14 -21 L 211.53 -21 C 210.3 -21 209.28 -19.98 209.28 -18.78 L 209.28 -1.62 C 209.28 -0.63 210.09 0.18 211.08 0.18 C 212.07 0.18 212.88 -0.63 212.88 -1.62 Z M 212.88 -10.29 L 212.88 -16.29 C 212.88 -16.89 213.39 -17.4 213.99 -17.4 L 217.14 -17.4 C 219.57 -17.4 221.25 -15.75 221.25 -13.29 C 221.25 -10.86 219.57 -9.18 217.14 -9.18 L 213.99 -9.18 C 213.39 -9.18 212.88 -9.69 212.88 -10.29 Z M 247.38 -2.22 L 240.06 -19.59 C 239.22 -21.69 236.4 -21.66 235.56 -19.59 L 228.24 -2.22 C 228.15 -2.01 228.09 -1.77 228.09 -1.5 C 228.09 -0.51 228.9 0.3 229.89 0.3 C 230.61 0.3 231.27 -0.15 231.54 -0.75 L 232.44 -2.88 C 232.65 -3.42 233.37 -3.9 233.97 -3.9 L 241.65 -3.9 C 242.25 -3.9 242.97 -3.42 243.18 -2.88 L 244.08 -0.75 C 244.38 -0.12 245.01 0.3 245.73 0.3 C 246.69 0.3 247.53 -0.51 247.53 -1.5 C 247.53 -1.74 247.47 -2.01 247.38 -2.22 Z M 234.81 -8.52 L 237.39 -14.61 C 237.6 -15.15 238.02 -15.15 238.23 -14.61 L 240.81 -8.52 C 241.02 -7.98 240.72 -7.5 240.12 -7.5 L 235.5 -7.5 C 234.9 -7.5 234.6 -7.98 234.81 -8.52 Z M 257.37 -1.62 L 257.37 -4.47 C 257.37 -5.07 257.88 -5.58 258.48 -5.58 L 260.13 -5.58 C 260.73 -5.58 261.54 -5.19 261.93 -4.71 L 265.11 -0.54 C 265.44 -0.12 265.95 0.15 266.52 0.15 C 267.51 0.15 268.32 -0.66 268.32 -1.65 C 268.32 -2.04 268.2 -2.46 267.96 -2.76 L 265.8 -5.58 C 265.44 -6.03 265.56 -6.72 266.07 -7.05 C 268.02 -8.46 269.31 -10.74 269.31 -13.29 C 269.31 -17.46 265.8 -20.97 261.63 -20.97 L 256.02 -20.97 C 254.79 -20.97 253.77 -19.98 253.77 -18.75 L 253.77 -1.62 C 253.77 -0.63 254.58 0.18 255.57 0.18 C 256.56 0.18 257.37 -0.63 257.37 -1.62 Z M 257.37 -10.29 L 257.37 -16.26 C 257.37 -16.86 257.88 -17.37 258.48 -17.37 L 261.63 -17.37 C 264.06 -17.37 265.71 -15.72 265.71 -13.29 C 265.71 -10.83 264.06 -9.18 261.63 -9.18 L 258.48 -9.18 C 257.88 -9.18 257.37 -9.69 257.37 -10.29 Z M 294.84 -2.22 L 287.52 -19.59 C 286.68 -21.69 283.86 -21.66 283.02 -19.59 L 275.7 -2.22 C 275.61 -2.01 275.55 -1.77 275.55 -1.5 C 275.55 -0.51 276.36 0.3 277.35 0.3 C 278.07 0.3 278.73 -0.15 279 -0.75 L 279.9 -2.88 C 280.11 -3.42 280.83 -3.9 281.43 -3.9 L 289.11 -3.9 C 289.71 -3.9 290.43 -3.42 290.64 -2.88 L 291.54 -0.75 C 291.84 -0.12 292.47 0.3 293.19 0.3 C 294.15 0.3 294.99 -0.51 294.99 -1.5 C 294.99 -1.74 294.93 -2.01 294.84 -2.22 Z M 282.27 -8.52 L 284.85 -14.61 C 285.06 -15.15 285.48 -15.15 285.69 -14.61 L 288.27 -8.52 C 288.48 -7.98 288.18 -7.5 287.58 -7.5 L 282.96 -7.5 C 282.36 -7.5 282.06 -7.98 282.27 -8.52 Z M 320.46 -1.62 L 320.46 -16.29 C 320.46 -16.89 320.97 -17.4 321.57 -17.4 L 324.69 -17.4 C 325.68 -17.4 326.49 -18.21 326.49 -19.2 C 326.49 -20.19 325.68 -21 324.69 -21 L 312.63 -21 C 311.64 -21 310.83 -20.19 310.83 -19.2 C 310.83 -18.21 311.64 -17.4 312.63 -17.4 L 315.75 -17.4 C 316.35 -17.4 316.86 -16.89 316.86 -16.29 L 316.86 -1.62 C 316.86 -0.63 317.67 0.18 318.66 0.18 C 319.65 0.18 320.46 -0.63 320.46 -1.62 Z M 346.23 -19.38 L 346.23 -8.7 C 346.23 -5.82 343.86 -3.45 340.98 -3.45 C 338.1 -3.45 335.73 -5.82 335.73 -8.7 L 335.73 -19.38 C 335.73 -20.37 334.92 -21.18 333.93 -21.18 C 332.94 -21.18 332.13 -20.37 332.13 -19.38 L 332.13 -8.7 C 332.13 -3.84 336.12 0.15 340.98 0.15 C 345.84 0.15 349.83 -3.84 349.83 -8.7 L 349.83 -19.38 C 349.83 -20.37 349.02 -21.18 348.03 -21.18 C 347.04 -21.18 346.23 -20.37 346.23 -19.38 Z M 379.62 -4.62 C 378.48 -3.87 377.16 -3.45 375.75 -3.45 C 371.85 -3.45 368.67 -6.63 368.67 -10.53 C 368.67 -14.37 371.85 -17.55 375.75 -17.55 C 377.16 -17.55 378.48 -17.13 379.62 -16.38 C 379.92 -16.17 380.25 -16.08 380.61 -16.08 C 381.57 -16.08 382.41 -16.89 382.41 -17.88 C 382.41 -18.48 382.11 -19.05 381.6 -19.38 C 379.95 -20.46 377.88 -21.15 375.75 -21.15 C 369.87 -21.15 365.07 -16.35 365.07 -10.53 C 365.07 -4.65 369.87 0.15 375.75 0.15 C 377.91 0.15 379.92 -0.51 381.6 -1.62 C 382.08 -1.95 382.41 -2.49 382.41 -3.12 C 382.41 -4.11 381.6 -4.92 380.61 -4.92 C 380.28 -4.92 379.89 -4.8 379.62 -4.62 Z M 392.25 -1.62 L 392.25 -19.38 C 392.25 -20.37 391.44 -21.18 390.45 -21.18 C 389.46 -21.18 388.65 -20.37 388.65 -19.38 L 388.65 -1.62 C 388.65 -0.63 389.46 0.18 390.45 0.18 C 391.44 0.18 392.25 -0.63 392.25 -1.62 Z M 413.04 -4.62 C 411.9 -3.87 410.58 -3.45 409.17 -3.45 C 405.27 -3.45 402.09 -6.63 402.09 -10.53 C 402.09 -14.37 405.27 -17.55 409.17 -17.55 C 410.58 -17.55 411.9 -17.13 413.04 -16.38 C 413.34 -16.17 413.67 -16.08 414.03 -16.08 C 414.99 -16.08 415.83 -16.89 415.83 -17.88 C 415.83 -18.48 415.53 -19.05 415.02 -19.38 C 413.37 -20.46 411.3 -21.15 409.17 -21.15 C 403.29 -21.15 398.49 -16.35 398.49 -10.53 C 398.49 -4.65 403.29 0.15 409.17 0.15 C 411.33 0.15 413.34 -0.51 415.02 -1.62 C 415.5 -1.95 415.83 -2.49 415.83 -3.12 C 415.83 -4.11 415.02 -4.92 414.03 -4.92 C 413.7 -4.92 413.31 -4.8 413.04 -4.62 Z M 434.55 -3.6 L 426.78 -3.6 C 426.18 -3.6 425.67 -4.11 425.67 -4.71 L 425.67 -19.38 C 425.67 -20.37 424.86 -21.18 423.87 -21.18 C 422.88 -21.18 422.07 -20.37 422.07 -19.38 L 422.07 -2.25 C 422.07 -1.02 423.09 0 424.32 0 L 434.55 0 C 435.54 0 436.35 -0.81 436.35 -1.8 C 436.35 -2.79 435.54 -3.6 434.55 -3.6 Z M 451.47 -3.45 C 447.57 -3.45 444.39 -6.63 444.39 -10.53 C 444.39 -14.37 447.57 -17.55 451.47 -17.55 C 455.34 -17.55 458.52 -14.37 458.52 -10.53 C 458.52 -6.63 455.34 -3.45 451.47 -3.45 Z M 451.47 0.15 C 457.32 0.15 462.12 -4.65 462.12 -10.53 C 462.12 -16.35 457.32 -21.15 451.47 -21.15 C 445.59 -21.15 440.79 -16.35 440.79 -10.53 C 440.79 -4.65 445.59 0.15 451.47 0.15 Z" stroke-linecap="round" />
</g>
</g>
</g>
<g transform="matrix(2.267623177118757 0 0 2.267623177118757 639.263187396743 374.54836897518106)" id="logo-logo"  >
<g style=""  paint-order="stroke"   >
		<g transform="matrix(1.0116800155753922 0 0 1.0116800155753922 0 0)"  >
<g style=""  paint-order="stroke"   >
		<g transform="matrix(1 0 0 1 0 0)"  >
<rect style="stroke: none; stroke-width: 1; stroke-dasharray: none; stroke-linecap: butt; stroke-dashoffset: 0; stroke-linejoin: miter; stroke-miterlimit: 4; fill: rgb(252,164,180); fill-rule: nonzero; opacity: 1;"  paint-order="stroke"  x="-100" y="-100" rx="40" ry="40" width="200" height="200" />
</g>
</g>
</g>
		<g transform="matrix(2.2589665754738357 0 0 -2.2589665754738353 0.0011294832877410954 0.5193364157014173)"  >
<path style="stroke: none; stroke-width: 1; stroke-dasharray: none; stroke-linecap: butt; stroke-dashoffset: 0; stroke-linejoin: miter; stroke-miterlimit: 4; fill: rgb(255,236,215); fill-rule: nonzero; opacity: 1;"  paint-order="stroke"  transform=" translate(0.000499999999995282, 34.157)" d="M 0 0 L -0.001 0 C -18.865000000000002 0 -34.157999999999994 -15.292 -34.157999999999994 -34.157 C -34.157999999999994 -53.021 -18.864999999999995 -68.314 -0.0009999999999976694 -68.314 L 0 -68.314 C 18.864 -68.314 34.157 -53.020999999999994 34.157 -34.157 C 34.157 -15.292 18.864 0 0 0" stroke-linecap="round" />
</g>
		<g transform="matrix(2.2589665754738357 0 0 -2.2589665754738353 -5.684342e-14 -35.78406362542347)"  >
<path style="stroke: none; stroke-width: 1; stroke-dasharray: none; stroke-linecap: butt; stroke-dashoffset: 0; stroke-linejoin: miter; stroke-miterlimit: 4; fill: rgb(157,70,62); fill-rule: nonzero; opacity: 1;"  paint-order="stroke"  transform=" translate(-199.583, -105.78200000000001)" d="M 217.362 118.882 C 212.18099999999998 122.045 206.096 123.86800000000001 199.584 123.86800000000001 L 199.584 123.86800000000001 C 193.072 123.86800000000001 186.985 122.04500000000002 181.805 118.882 L 181.805 118.882 C 180.58700000000002 122.06400000000001 177.511 124.328 173.9 124.328 L 173.9 124.328 C 169.22 124.328 165.425 120.534 165.425 115.854 L 165.425 115.854 C 165.425 112.293 167.626 109.25 170.739 107.997 L 170.739 107.997 C 167.38 102.709 165.425 96.439 165.425 89.711 L 165.425 89.711 C 165.425 89.52499999999999 165.437 89.339 165.441 89.15299999999999 L 165.441 89.15299999999999 C 176.524 93.13699999999999 184.829 102.948 186.652 114.89399999999999 L 186.652 114.89399999999999 C 186.76899999999998 115.65899999999999 186.88 115.734 187.00699999999998 115.734 L 187.00699999999998 115.734 C 187.18599999999998 115.734 187.27299999999997 115.73899999999999 187.402 114.887 L 187.402 114.887 C 189.795 99.23 203.31799999999998 87.236 219.64299999999997 87.236 L 219.64299999999997 87.236 L 233.64299999999997 87.236 C 233.70099999999996 88.055 233.74099999999999 88.878 233.74099999999999 89.711 L 233.74099999999999 89.711 C 233.74099999999999 96.439 231.78699999999998 102.709 228.428 107.997 L 228.428 107.997 C 231.541 109.25 233.74099999999999 112.293 233.74099999999999 115.854 L 233.74099999999999 115.854 C 233.74099999999999 120.53399999999999 229.94699999999997 124.328 225.267 124.328 L 225.267 124.328 C 221.656 124.328 218.57999999999998 122.06400000000001 217.362 118.882" stroke-linecap="round" />
</g>
		<g transform="matrix(2.2589665754738357 0 0 -2.2589665754738353 -0.015510563768827978 43.42809887165009)"  >
<path style="stroke: none; stroke-width: 1; stroke-dasharray: none; stroke-linecap: butt; stroke-dashoffset: 0; stroke-linejoin: miter; stroke-miterlimit: 4; fill: rgb(157,70,62); fill-rule: nonzero; opacity: 1;"  paint-order="stroke"  transform=" translate(0.07036622101325563, -1.5063361884589956)" d="M 0 0 C -1.934 0 -3.381 0.693 -4.384 1.451 C -4.801 1.766 -4.839 2.3770000000000002 -4.474 2.749 C -4.173 3.056 -3.689 3.104 -3.3470000000000004 2.845 C -2.582 2.267 -1.478 1.736 0 1.736 C 1.408 1.736 2.475 2.2199999999999998 3.223 2.753 C 3.573 3.003 4.055 2.9450000000000003 4.348 2.63 L 4.349 2.63 C 4.703 2.248 4.651 1.638 4.228 1.336 C 3.246 0.636 1.846 0 0 0" stroke-linecap="round" />
</g>
		<g transform="matrix(2.2589665754738357 0 0 -2.2589665754738353 32.269111633986086 14.045124683008567)"  >
<path style="stroke: none; stroke-width: 1; stroke-dasharray: none; stroke-linecap: butt; stroke-dashoffset: 0; stroke-linejoin: miter; stroke-miterlimit: 4; fill: rgb(157,70,62); fill-rule: nonzero; opacity: 1;"  paint-order="stroke"  transform=" translate(2.387, 0)" d="M 0 0 C 0 -1.318 -1.069 -2.387 -2.387 -2.387 C -3.705 -2.387 -4.774 -1.318 -4.774 0 C -4.774 1.318 -3.705 2.387 -2.387 2.387 C -1.069 2.387 0 1.318 0 0" stroke-linecap="round" />
</g>
		<g transform="matrix(2.2589665754738357 0 0 -2.2589665754738353 -32.268620016510795 -1.042949351661349)"  >
<path style="stroke: none; stroke-width: 1; stroke-dasharray: none; stroke-linecap: butt; stroke-dashoffset: 0; stroke-linejoin: miter; stroke-miterlimit: 4; fill: rgb(157,70,62); fill-rule: nonzero; opacity: 1;"  paint-order="stroke"  transform=" translate(-3.4145176293712227, -1.46329313126848)" d="M 0 0 L -0.023 0.012 C -0.516 0.267 -0.642 0.916 -0.275 1.331 C 0.38 2.074 1.5750000000000002 3.021 3.416 3.021 C 5.253 3.021 6.448 2.076 7.104 1.335 C 7.472 0.918 7.344 0.268 6.85 0.014 L 6.826 0.002 C 6.474 -0.179 6.052 -0.087 5.787 0.207 C 5.365 0.677 4.593 1.284 3.416 1.284 C 2.237 1.284 1.465 0.676 1.042 0.204 C 0.777 -0.092 0.353 -0.183 0 0" stroke-linecap="round" />
</g>
		<g transform="matrix(2.2589665754738357 0 0 -2.2589665754738353 -32.26594908078056 14.045124683008567)"  >
<path style="stroke: none; stroke-width: 1; stroke-dasharray: none; stroke-linecap: butt; stroke-dashoffset: 0; stroke-linejoin: miter; stroke-miterlimit: 4; fill: rgb(157,70,62); fill-rule: nonzero; opacity: 1;"  paint-order="stroke"  transform=" translate(2.387, 0)" d="M 0 0 C 0 -1.318 -1.069 -2.387 -2.387 -2.387 C -3.705 -2.387 -4.774 -1.318 -4.774 0 C -4.774 1.318 -3.705 2.387 -2.387 2.387 C -1.069 2.387 0 1.318 0 0" stroke-linecap="round" />
</g>
		<g transform="matrix(2.2589665754738357 0 0 -2.2589665754738353 32.26978932395872 38.77900151118672)"  >
<path style="stroke: none; stroke-width: 1; stroke-dasharray: none; stroke-linecap: butt; stroke-dashoffset: 0; stroke-linejoin: miter; stroke-miterlimit: 4; fill: rgb(248,167,180); fill-rule: nonzero; opacity: 1;"  paint-order="stroke"  transform=" translate(5.1035, 0)" d="M 0 0 C 0 -2.818 -2.285 -5.104 -5.104 -5.104 C -7.923 -5.104 -10.207 -2.818 -10.207 0 C -10.207 2.818 -7.923000000000001 5.104 -5.104000000000001 5.104 C -2.285 5.104 0 2.818 0 0" stroke-linecap="round" />
</g>
		<g transform="matrix(2.2589665754738357 0 0 -2.2589665754738353 -32.26527139080781 38.77900151118672)"  >
<path style="stroke: none; stroke-width: 1; stroke-dasharray: none; stroke-linecap: butt; stroke-dashoffset: 0; stroke-linejoin: miter; stroke-miterlimit: 4; fill: rgb(248,167,180); fill-rule: nonzero; opacity: 1;"  paint-order="stroke"  transform=" translate(5.1035, 0)" d="M 0 0 C 0 -2.818 -2.285 -5.104 -5.104 -5.104 C -7.923 -5.104 -10.207 -2.818 -10.207 0 C -10.207 2.818 -7.923000000000001 5.104 -5.104000000000001 5.104 C -2.285 5.104 0 2.818 0 0" stroke-linecap="round" />
</g>
</g>
</g>
</svg>